<?xml version="1.0" encoding="utf-8"?>
<!-- Generator: Adobe Illustrator 22.0.1, SVG Export Plug-In . SVG Version: 6.00 Build 0)  -->
<svg version="1.1" id="Layer_1" xmlns="http://www.w3.org/2000/svg" xmlns:xlink="http://www.w3.org/1999/xlink" x="0px" y="0px"
	 viewBox="0 0 500 120" style="enable-background:new 0 0 500 120;" xml:space="preserve">
<style type="text/css">
	.st0{fill:#FF0000;}
	.st1{fill:#FFFFFF;stroke:#000000;stroke-miterlimit:10;}
	.st2{fill:#FFB171;}
</style>
<path class="st0" d="M204.3,18.4c-4,6.5-2.4,12.2,5.7,16.2c3.1,1.6,6.5,2.7,9.5,4.2c8.2,4.4,16.2,8.9,24,13.1V12.9
	c-1.8,2.4-3,3.8-4,5.1C228.2,12.8,217,9.2,204.3,18.4 M377.7,46.9c-1.3-5.2-2.1-10.5-4-15.5c-5.4-14.8-19.9-21.9-33.3-17.4
	c-12.4,4.2-19.4,16-19.9,30c-0.6,14.3,3,27.6,17.8,33.5c5.7,2.3,12.9,2.4,18.9,1C369.6,75.8,376.8,61.4,377.7,46.9 M309.2,64.2v24.2
	c-4,0.3-7.3,0.4-11.4,0.7V50.6h-41.4v37.4h-11.6c-0.3-3.4-0.7-6.8-1.1-11.7c-8.3,11-18.8,14.6-30.7,13.7c-16.4-1.3-20.1-3-25.9-9.5
	c1.6-2.4,3.1-5.1,4.8-7.9c5.7,2.3,11,4.4,16.4,6.4c6.6,2.4,13.1,1.1,18.9-2.3c8.5-4.9,7.8-16.7-1.6-21.6c-6.9-3.7-14.4-6.5-21.6-9.9
	c-14.8-6.8-17.4-22.3-9.9-32.5c6.8-9,17.7-11.7,28.8-10.5c6.6,0.7,13,3,20.2,4.7c0.4-0.6,1.3-2.1,2.1-3.7c3.5,0.4,6.9,0.7,11.4,1.1
	v35.2h40.4V4h11.6v25.4c7.5-13,16-23.3,31.8-25.9c15.3-2.5,27.7,1.1,38.7,14V6c3.5-0.7,6.8-1.6,11-2.4c6.1,23.3,12,45.9,17.9,68.7
	c0.6,0,1.1,0.1,1.7,0.3c5.5-19.6,11.2-39.3,16.8-59.3h14.7c5.5,18.9,11,37.9,16.5,56.9c1-0.1,1.8-0.1,2.8-0.3
	c5.5-21.5,11-43,17-65.8c4,1.1,7.6,2.3,11.3,3.2c-7.8,27.8-15.3,54.5-22.7,81.4H451c-5.4-18.9-10.5-37.6-16.2-57.8
	c-2,2.7-3.8,4.1-4.2,5.9c-4.9,17.2-9.7,34.6-14.6,52h-15c-3.8-13.1-7.5-26.1-11.3-39c-3,23.5-14.8,39-38.7,41
	c-19.4,1.7-33.2-8.5-40.5-27.1L309.2,64.2z"/>
<path class="st1" d="M44,89H31.2V15.6H5.8V5.7h63.6v9.9H44V89z"/>
<path class="st1" d="M122.8,10.1c-1.4,3.4-2.7,6.4-3.1,7.3c-10.3-0.8-19.4-2.3-28.5-2.3c-5.5,0-9.9,3.5-10.6,9.5
	c-0.7,5.7,3,9.2,7.8,11.4c6.4,3,13,5.4,19.4,8.5c13,6.5,17.9,15,15.8,26.7c-1.7,10.3-10.3,17.9-22.9,19.8c-12.6,1.7-24.7,0-35.7-8.2
	c1.8-3.2,3.7-6.2,5.7-9.6c9.3,6.5,18.9,10,30,7.1c5.7-1.4,10-4.2,11-10.5c1-6.5-1.8-11-7.5-13.7c-8.2-4.1-16.8-7.2-24.7-11.9
	c-11.6-6.8-14-22-5.2-31.5c2.5-2.8,6.2-5.2,9.7-6.5C97.1,1.9,110,3.7,122.8,10.1"/>
<path class="st1" d="M127.4,5.8h50.2v9.9h-38.7v25.1H172v10H139V80h38.4v9.9h-50L127.4,5.8L127.4,5.8z"/>
<g>
	<g>
		<path class="st2" d="M34.5,109.6v1.6c0,1.5,0.4,2.3,1.4,2.3c1,0,1.3-1.1,1.3-2.2c0-2.2-0.4-2.9-2.8-4.9c-2.6-2.2-4-3.6-4-7
			c0-3.3,1.1-6.4,5.5-6.4c4.7,0,5.4,3.2,5.4,5.9v1.3h-4.3v-1.4c0-1.4-0.2-2.1-1.1-2.1c-0.8,0-1.1,0.7-1.1,2c0,1.4,0.3,2.1,2.2,3.6
			c3.4,2.7,4.7,4.2,4.7,8.1c0,3.7-1.3,6.7-5.9,6.7c-4.5,0-5.7-2.7-5.7-6.2v-1.4H34.5z"/>
		<path class="st2" d="M53.7,97.4h-3.4v-4h11.3v4h-3.4v19.4h-4.5V97.4z"/>
		<path class="st2" d="M82.2,99.7v10.9c0,4.6-2.2,6.6-6.3,6.6c-3.9,0-5.9-2-5.9-6.6v-11c0-4.5,2.5-6.5,6.1-6.5
			C79.7,93,82.2,95,82.2,99.7z M74.6,99.1v12c0,1.4,0.5,2.2,1.5,2.2c1,0,1.5-0.7,1.5-2.2v-12c0-1.5-0.4-2.2-1.5-2.2
			C75.1,96.9,74.6,97.6,74.6,99.1z"/>
		<path class="st2" d="M107.7,109.2v1.3c0,3-0.5,6.7-5.9,6.7c-4,0-5.7-2.1-5.7-6.4V99.3c0-4.1,2-6.2,5.8-6.2c4.9,0,5.8,3.3,5.8,6.3
			v1.5h-4.5v-2c0-1.3-0.3-1.9-1.2-1.9c-0.9,0-1.2,0.6-1.2,1.9v12.4c0,1.3,0.2,2.1,1.2,2.1c1,0,1.3-0.7,1.3-2.2v-1.9H107.7z"/>
		<path class="st2" d="M119.9,93.4h4.4v10.2h0.1c0.7-2.2,2.3-7,3.3-10.2h5l-3.9,9.1l4.1,14.4h-4.9l-2.3-9.9l-1.3,3v6.9h-4.4V93.4z"
			/>
		<path class="st2" d="M162.7,109.3c0-3.6,0-8.8,0.1-11.6h-0.1c-0.5,4.7-1.5,14.2-2.2,19.1h-3.8c-0.5-5.1-1.5-14.8-2-19.2h-0.1
			c0.1,2.7,0.2,7.8,0.2,11.9v7.3h-4.1V93.4h6.5c0.6,4.5,1.3,10.3,1.6,13.5h0.1c0.4-3.4,1.1-8.3,1.9-13.5h6.4v23.4h-4.3V109.3z"/>
		<path class="st2" d="M184.7,111.2l-0.6,5.6h-4.6l3.3-23.4h6.7l3.4,23.4h-4.7l-0.6-5.6H184.7z M187.2,107.3c-0.3-3-0.8-7.6-1-9.8
			H186c-0.1,1.6-0.6,6.9-0.9,9.8H187.2z"/>
		<path class="st2" d="M207.6,106.6v10.2h-4.5V93.4h5.8c3.9,0,5.9,1.7,5.9,5.8v0.8c0,3.3-1.3,4.3-2.3,4.8c1.5,0.7,2.1,1.8,2.1,5
			c0,2.3,0,5.7,0.2,6.9h-4.4c-0.3-1.1-0.3-4.1-0.3-7.1c0-2.6-0.3-3.1-2-3.1H207.6z M207.6,103.1h0.6c1.5,0,2.1-0.5,2.1-2.7v-1.1
			c0-1.6-0.3-2.4-2-2.4h-0.7V103.1z"/>
		<path class="st2" d="M225.2,93.4h4.4v10.2h0.1c0.7-2.2,2.3-7,3.3-10.2h5l-3.9,9.1l4.1,14.4h-4.9l-2.3-9.9l-1.3,3v6.9h-4.4V93.4z"
			/>
		<path class="st2" d="M256,106.5h-4.8v6.4h5.7l-0.5,4h-9.6V93.4h9.6v4h-5.1v5.1h4.8V106.5z"/>
		<path class="st2" d="M269.4,97.4h-3.4v-4h11.3v4h-3.4v19.4h-4.5V97.4z"/>
		<path class="st2" d="M299.2,111.2l-0.6,5.6H294l3.3-23.4h6.7l3.4,23.4h-4.7l-0.6-5.6H299.2z M301.7,107.3c-0.3-3-0.8-7.6-1-9.8
			h-0.2c-0.1,1.6-0.6,6.9-0.9,9.8H301.7z"/>
		<path class="st2" d="M317.7,116.8V93.4h5c0.7,2.9,3.1,13.5,3.3,14.5h0.1c-0.2-3.1-0.4-7.4-0.4-10.6v-3.8h4.2v23.4h-5
			c-0.5-2.2-3-14.3-3.2-15.1h-0.1c0.2,2.8,0.3,7.4,0.3,11.1v4H317.7z"/>
		<path class="st2" d="M347.5,111.2l-0.6,5.6h-4.6l3.3-23.4h6.7l3.4,23.4h-4.7l-0.6-5.6H347.5z M350.1,107.3c-0.3-3-0.8-7.6-1-9.8
			h-0.2c-0.1,1.6-0.6,6.9-0.9,9.8H350.1z"/>
		<path class="st2" d="M366,93.4h4.5v19.5h5.7l-0.4,3.9H366V93.4z"/>
		<path class="st2" d="M389.1,111.2l-0.6,5.6h-4.6l3.3-23.4h6.7l3.4,23.4h-4.7l-0.6-5.6H389.1z M391.6,107.3c-0.3-3-0.8-7.6-1-9.8
			h-0.2c-0.1,1.6-0.6,6.9-0.9,9.8H391.6z"/>
		<path class="st2" d="M410.3,116.8v-7.5c0-0.4-0.1-0.8-0.2-1.2L406,93.4h4.9c0.6,3.4,1.4,7.3,1.7,10.2h0.1
			c0.4-2.8,1.1-6.8,1.7-10.2h4.6l-4.2,15.1c-0.1,0.3-0.1,0.5-0.1,1v7.3H410.3z"/>
		<path class="st2" d="M431.2,109.6v1.6c0,1.5,0.4,2.3,1.4,2.3c1,0,1.3-1.1,1.3-2.2c0-2.2-0.4-2.9-2.8-4.9c-2.6-2.2-4-3.6-4-7
			c0-3.3,1.1-6.4,5.5-6.4c4.7,0,5.4,3.2,5.4,5.9v1.3h-4.3v-1.4c0-1.4-0.2-2.1-1.1-2.1c-0.8,0-1.1,0.7-1.1,2c0,1.4,0.3,2.1,2.2,3.6
			c3.4,2.7,4.7,4.2,4.7,8.1c0,3.7-1.3,6.7-5.9,6.7c-4.5,0-5.7-2.7-5.7-6.2v-1.4H431.2z"/>
		<path class="st2" d="M452.7,93.4v23.4h-4.5V93.4H452.7z"/>
		<path class="st2" d="M460.6,109.6v1.6c0,1.5,0.4,2.3,1.4,2.3c1,0,1.3-1.1,1.3-2.2c0-2.2-0.4-2.9-2.8-4.9c-2.6-2.2-4-3.6-4-7
			c0-3.3,1.1-6.4,5.5-6.4c4.7,0,5.4,3.2,5.4,5.9v1.3h-4.3v-1.4c0-1.4-0.2-2.1-1.1-2.1c-0.8,0-1.1,0.7-1.1,2c0,1.4,0.3,2.1,2.2,3.6
			c3.4,2.7,4.7,4.2,4.7,8.1c0,3.7-1.3,6.7-5.9,6.7c-4.5,0-5.7-2.7-5.7-6.2v-1.4H460.6z"/>
	</g>
</g>
</svg>
