<?xml version="1.0" encoding="utf-8"?>
<!-- Generator: Adobe Illustrator 22.0.1, SVG Export Plug-In . SVG Version: 6.00 Build 0)  -->
<svg version="1.1" id="Layer_1" xmlns="http://www.w3.org/2000/svg" xmlns:xlink="http://www.w3.org/1999/xlink" x="0px" y="0px"
	 viewBox="0 0 500 500" style="enable-background:new 0 0 500 500;" xml:space="preserve">
<style type="text/css">
	.st0{fill:#FF0000;stroke:#000000;stroke-width:0.25;stroke-miterlimit:10;}
	.st1{fill:#FFFFFF;stroke:#000000;stroke-width:0.25;stroke-miterlimit:10;}
	.st2{fill:#F2EFF0;}
	.st3{fill:#231F20;}
	.st4{fill:#FFB992;stroke:#000000;stroke-width:0.25;stroke-miterlimit:10;}
</style>
<path class="st0" d="M215.5,232c-2.8,4.6-1.7,8.6,4,11.5c2.2,1.1,4.6,1.9,6.7,3c5.8,3.1,11.5,6.3,17,9.3v-27.7
	c-1.3,1.7-2.1,2.7-2.8,3.6C232.4,228,224.5,225.5,215.5,232 M338.2,252.2c-0.9-3.7-1.5-7.4-2.8-11c-3.8-10.5-14.1-15.5-23.6-12.3
	c-8.8,3-13.7,11.3-14.1,21.2c-0.4,10.1,2.1,19.5,12.6,23.7c4,1.6,9.1,1.7,13.4,0.7C332.5,272.6,337.6,262.4,338.2,252.2
	 M289.7,264.4v17.1c-2.8,0.2-5.2,0.3-8.1,0.5v-27.2h-29.3v26.5h-8.2c-0.2-2.4-0.5-4.8-0.8-8.3c-5.9,7.8-13.3,10.3-21.7,9.7
	c-11.6-0.9-14.2-2.1-18.3-6.7c1.1-1.7,2.2-3.6,3.4-5.6c4,1.6,7.8,3.1,11.6,4.5c4.7,1.7,9.3,0.8,13.4-1.6c6-3.5,5.5-11.8-1.1-15.3
	c-4.9-2.6-10.2-4.6-15.3-7c-10.5-4.8-12.3-15.8-7-23c4.8-6.4,12.5-8.3,20.4-7.4c4.7,0.5,9.2,2.1,14.3,3.3c0.3-0.4,0.9-1.5,1.5-2.6
	c2.5,0.3,4.9,0.5,8.1,0.8V247h28.6v-25.2h8.2v18c5.3-9.2,11.3-16.5,22.5-18.3c10.8-1.8,19.6,0.8,27.4,9.9v-8.2
	c2.5-0.5,4.8-1.1,7.8-1.7c4.3,16.5,8.5,32.5,12.7,48.6c0.4,0,0.8,0.1,1.2,0.2c3.9-13.9,7.9-27.8,11.9-42h10.4
	c3.9,13.4,7.8,26.8,11.7,40.3c0.7-0.1,1.3-0.1,2-0.2c3.9-15.2,7.8-30.4,12-46.6c2.8,0.8,5.4,1.6,8,2.3
	c-5.5,19.7-10.8,38.6-16.1,57.6h-10.8c-3.8-13.4-7.4-26.6-11.5-40.9c-1.4,1.9-2.7,2.9-3,4.2c-3.5,12.2-6.9,24.5-10.3,36.8h-10.6
	c-2.7-9.3-5.3-18.5-8-27.6c-2.1,16.6-10.5,27.6-27.4,29c-13.7,1.2-23.5-6-28.7-19.2L289.7,264.4z"/>
<path class="st1" d="M102,282h-9v-52H75v-7h45v7h-18V282z"/>
<path class="st1" d="M155,226.1c-1,2.4-1.9,4.5-2.2,5.2c-7.3-0.6-13.7-1.6-20.2-1.6c-3.9,0-7,2.5-7.5,6.7c-0.5,4,2.1,6.5,5.5,8.1
	c4.5,2.1,9.2,3.8,13.7,6c9.2,4.6,12.7,10.6,11.2,18.9c-1.2,7.3-7.3,12.7-16.2,14c-8.9,1.2-17.5,0-25.3-5.8c1.3-2.3,2.6-4.4,4-6.8
	c6.6,4.6,13.4,7.1,21.2,5c4-1,7.1-3,7.8-7.4c0.7-4.6-1.3-7.8-5.3-9.7c-5.8-2.9-11.9-5.1-17.5-8.4c-8.2-4.8-9.9-15.6-3.7-22.3
	c1.8-2,4.4-3.7,6.9-4.6C136.8,220.3,145.9,221.6,155,226.1"/>
<path class="st1" d="M156.8,223.1h35.5v7h-27.4v17.8h23.5v7.1H165v20.6h27.2v7h-35.4V223.1z"/>
<path class="st2" d="M2430.6,2547.7c-1.7-2.8-3-5.1-5-8.3c-0.3,3.9-0.5,6.5-0.7,9.1c-0.4,0-0.8,0-1.1,0v-13.6
	c0.4-0.3,0.8-0.5,1.1-0.7c1.8,3,3.7,5.9,5.7,9.1c2-3.1,4-6.1,5.9-9c0.4,0.3,0.8,0.5,1.2,0.8v13.4c-0.4,0-0.9,0.1-1.3,0.1
	c-0.2-2.7-0.4-5.3-0.7-9.2C2433.7,2542.6,2432.3,2544.9,2430.6,2547.7"/>
<path class="st2" d="M2551.4,2534.2c2.5,3.1,4.9,6.1,8.1,10c0.2-3.8,0.4-6.5,0.6-9.3c0.4,0,0.8,0,1.2-0.1v14.8
	c-3-3.4-5.6-6.4-8.8-10.1c-0.3,3.5-0.6,6.4-0.9,9.2c-0.4,0-0.9,0-1.3-0.1V2535C2550.7,2534.8,2551.1,2534.5,2551.4,2534.2"/>
<path class="st2" d="M2540.9,2534.6c2,4.5,3.9,9.1,5.9,13.6c-0.5,0.4-1.1,0.8-1.6,1.2c-0.7-1.3-1.5-2.7-2.1-3.8h-6.4
	c-1,1.1-2,2.2-3.1,3.3c-0.3-0.2-0.7-0.4-1-0.6l6.2-14C2539.5,2534.3,2540.2,2534.4,2540.9,2534.6"/>
<path class="st2" d="M2365.1,2535.7c-0.8,0-1.6,0-2.4,0c-1.3,2.1-3.8,4.2-3.7,6.1c0.2,1.8,3,4.4,5,4.7c3.1,0.6,5.5-1.9,4.9-5.2
	C2368.5,2539.4,2366.4,2537.6,2365.1,2535.7 M2363.7,2548.7c-4.2-0.1-7.2-3.2-7.1-7.3c0.1-4.1,3.2-6.9,7.6-6.7
	c4.2,0.1,7.4,3.3,7.2,7.2C2371.2,2545.8,2367.8,2548.8,2363.7,2548.7"/>
<path class="st2" d="M2578.1,2548.8c-0.7-1-1.5-2-2.3-3.1h-6.7c-0.7,1-1.6,2.1-2.4,3.2l-1.3-0.6c2-4.5,4-9.1,6.4-14.6
	c4.6,4.8,5.4,10.1,7.7,14.7C2579,2548.4,2578.5,2548.6,2578.1,2548.8"/>
<path class="st2" d="M2400.4,2549.1c-1.9-2-3.8-4.1-6.3-6.7c-1.1,2.4-2.1,4.3-3.1,6.3c-0.3-0.1-0.5-0.1-0.8-0.2v-13.6
	c0.4-0.1,0.7-0.2,1.1-0.3c0.4,1.8,0.7,3.7,1.2,6.3c2.6-2.4,4.9-4.5,7.3-6.7c0.3,0.3,0.6,0.6,0.8,0.9c-1.4,1.7-2.8,3.4-4.4,5.4
	c1.7,2.5,3.4,5,5.1,7.6C2401.1,2548.5,2400.8,2548.8,2400.4,2549.1"/>
<path class="st2" d="M2616.9,2537.1h-6.4c-0.2,0.5-0.4,0.9-0.6,1.4c2.3,1.4,4.7,2.7,8,4.6c-0.8,1.6-1.3,4.4-2.4,4.7
	c-2.7,0.6-5.7,0-8.5-0.1l0.1-1.9c2.6,0.2,5.2,0.4,7.8,0.6c0.2-0.6,0.3-1.3,0.5-1.9c-1.1-0.7-2.2-1.4-3.4-2c-1.3-0.7-2.6-1.3-4.9-2.4
	c1-1.9,1.6-4.3,2.7-4.7c2.3-0.7,4.9-0.2,7.4-0.2C2617.1,2535.8,2617,2536.4,2616.9,2537.1"/>
<path class="st2" d="M2330.8,2545.8c2.5,0.1,5.1,0.3,7.7,0.4c0.1-0.6,0.3-1.2,0.4-1.8c-2.7-1.6-5.5-3.2-9.8-5.8
	c2.9-1.9,4.5-3.5,6.4-3.9c1.6-0.4,3.4,0.6,5.2,1c-0.1,0.5-0.2,1-0.3,1.5h-6.7c-0.1,0.3-0.2,0.7-0.3,1c2.8,1.9,5.5,3.8,8.2,5.6
	C2338.6,2549.8,2334.6,2550.2,2330.8,2545.8"/>
<path class="st2" d="M2630.2,2538.5c1.3,0.7,2.8,1.3,3.8,2.3c1.4,1.4,2.5,3.2,3.8,4.9c-1.9,1-3.7,2.5-5.7,2.8
	c-1.5,0.2-3.2-1.2-4.5-2.7h7.9c0.1-0.4,0.1-0.8,0.2-1.3c-2.7-1.7-5.5-3.5-8.1-5.1c2.5-5.5,5.3-6.1,10.6-2.5h-7.4
	C2630.5,2537.4,2630.3,2538,2630.2,2538.5"/>
<path class="st2" d="M2454.6,2548.8c-1-1-2-2.1-3.1-3.2h-6.2c-0.8,0.9-1.8,2.1-2.8,3.2c-0.4-0.2-0.8-0.4-1.1-0.6
	c2-4.6,4.1-9.1,6.1-13.7c0.6-0.1,1.2-0.2,1.7-0.2c2.1,4.6,4.3,9.2,6.4,13.9C2455.2,2548.3,2454.9,2548.6,2454.6,2548.8"/>
<path class="st2" d="M2461,2542.5c2.3-0.3,4.3-0.5,6.8-0.8c-0.2-1.8-0.4-3.2-0.6-4.8h-6.2V2542.5z M2459.2,2533.7
	c3.5,1.1,7.1,1.6,9.8,3.5c1,0.7-0.2,4.6-0.4,7l-1.3,0c0.8,1.3,1.5,2.7,2.3,4c-0.3,0.3-0.7,0.5-1,0.8c-1.1-1.3-2.3-2.7-3.6-4.3h-3.8
	c-0.3,1.4-0.7,2.7-1,4c-0.3,0-0.6,0-0.9,0V2533.7z"/>
<path class="st2" d="M2478.2,2542l4.9-8.3c0.6,0.5,1.1,1.1,1.7,1.6c-1.4,1.6-2.7,3.3-4.3,5.2c1.7,2.5,3.4,5,5.1,7.6
	c-0.3,0.3-0.6,0.6-0.9,0.9c-2-2-3.9-4.1-6.4-6.6c-1.1,2.3-2,4.4-3.5,7.7v-15.2c0.4,0,0.8,0,1.3,0c0.2,2,0.4,3.9,0.6,5.9
	C2477.2,2541.1,2477.7,2541.6,2478.2,2542"/>
<path class="st2" d="M2385.6,2546.1c-3,3.2-6.5,3.5-9.6,0.7c-2.9-2.7-3.2-6.9-0.6-9.8c2.8-3.1,6.9-3.1,10.8,0.6
	c-4.8-0.9-9.8-2.5-10.3,4.2C2375.8,2545.7,2378.8,2547,2385.6,2546.1"/>
<path class="st2" d="M2491.6,2540.4c2.8,0.3,4.8,0.5,6.9,0.7l0,1.2c-2.2,0.2-4.3,0.3-6.7,0.5v3.7c2.6,0.2,5.1,0.4,7.7,0.6
	c0,0.4,0,0.8,0,1.2c-3.1,0.1-6.1,0.3-9.6,0.5V2535h9.3c0,0.4,0.1,0.8,0.1,1.3c-2.3,0.1-4.6,0.3-7.4,0.4
	C2491.8,2537.8,2491.7,2539,2491.6,2540.4"/>
<path class="st2" d="M2594.2,2534.4c1.5,2.2,3,4.3,4.8,6.8c1.6-2.4,3-4.6,4.4-6.8l0.9,0.6c-1.8,4.5-3.6,9-5.4,13.5
	c-1.8-4.3-3.7-8.8-5.6-13.3C2593.7,2534.9,2593.9,2534.6,2594.2,2534.4"/>
<path class="st2" d="M2347.5,2536.9c-1.4-0.3-2.7-0.5-4.1-0.8c0-0.3,0-0.6,0.1-0.9h10.8c0.1,0.3,0.1,0.5,0.2,0.8
	c-1.4,0.3-2.8,0.7-4.8,1.2v11.4c-0.5,0-1.1,0-1.6,0C2347.9,2544.8,2347.7,2541,2347.5,2536.9"/>
<path class="st2" d="M2507.1,2537.9c-1.5-1.6-2.4-2.6-2.6-2.8h8.6c0,0.3,0,0.6,0,0.9c-1.3,0.3-2.7,0.6-4.8,1.1v11.5
	c-0.4,0-0.9,0-1.3,0V2537.9z"/>
<path class="st2" d="M2590.8,2548.3h-7.8v-13.4c0.4,0,0.8-0.1,1.2-0.1v11.5c2.8,0.4,4.8,0.8,6.7,1.1
	C2590.8,2547.6,2590.8,2548,2590.8,2548.3"/>
<path class="st2" d="M2623.1,2534.8v13.7l-1,0v-13.7C2622.4,2534.8,2622.8,2534.8,2623.1,2534.8"/>
<path class="st3" d="M2362.6,2535.7c0.8,0,1.6,0,2.4,0"/>
<path class="st3" d="M2364,2546.6"/>
<path class="st3" d="M2365.1,2535.7"/>
<path class="st3" d="M2461,2542.5"/>
<path class="st3" d="M2467.2,2536.9"/>
<path class="st3" d="M2461,2542.5"/>
<g>
	<path class="st4" d="M192.6,299.7c-1.7-2.8-3-5.1-5-8.3c-0.3,3.9-0.5,6.5-0.7,9.1c-0.4,0-0.8,0-1.1,0v-13.6
		c0.4-0.3,0.8-0.5,1.1-0.7c1.8,3,3.7,5.9,5.7,9.1c2-3.1,4-6.1,5.9-9c0.4,0.3,0.8,0.5,1.2,0.8v13.4c-0.4,0-0.9,0.1-1.3,0.1
		c-0.2-2.7-0.4-5.3-0.7-9.2C195.7,294.6,194.3,296.9,192.6,299.7"/>
	<path class="st4" d="M313.4,286.2c2.5,3,4.9,6.1,8.1,10c0.2-3.8,0.4-6.5,0.6-9.3c0.4,0,0.8-0.1,1.2-0.1v14.8
		c-3-3.4-5.6-6.4-8.8-10.1c-0.3,3.5-0.6,6.4-0.9,9.2c-0.4,0-0.9,0-1.3-0.1V287C312.7,286.8,313.1,286.5,313.4,286.2"/>
	<path class="st4" d="M302.9,286.6c2,4.5,3.9,9.1,5.9,13.6c-0.5,0.4-1.1,0.8-1.6,1.2c-0.7-1.3-1.5-2.7-2.1-3.8h-6.4
		c-1,1.1-2,2.2-3.1,3.3c-0.3-0.2-0.7-0.4-1-0.6l6.2-14C301.5,286.3,302.2,286.4,302.9,286.6"/>
	<path class="st4" d="M127.1,287.7c-0.8,0-1.6,0-2.4,0c-1.3,2.1-3.8,4.2-3.7,6.1c0.2,1.8,3,4.4,5,4.7c3.1,0.6,5.5-1.9,4.9-5.2
		C130.5,291.4,128.4,289.6,127.1,287.7 M125.7,300.7c-4.2-0.1-7.2-3.2-7.1-7.3c0.1-4.1,3.2-6.9,7.6-6.7c4.2,0.1,7.4,3.3,7.2,7.2
		C133.2,297.8,129.8,300.8,125.7,300.7"/>
	<path class="st4" d="M340.1,300.8c-0.7-1-1.5-2-2.3-3.1h-6.7c-0.7,1-1.6,2.1-2.4,3.2l-1.3-0.6c2-4.5,4-9.1,6.4-14.6
		c4.6,4.8,5.4,10.1,7.7,14.7C341,300.4,340.5,300.6,340.1,300.8"/>
	<path class="st4" d="M162.4,301.1c-1.9-2-3.8-4.1-6.3-6.7c-1.1,2.4-2.1,4.3-3.1,6.3c-0.3-0.1-0.5-0.1-0.8-0.2v-13.6
		c0.4-0.1,0.7-0.2,1.1-0.3c0.4,1.8,0.7,3.7,1.2,6.3c2.6-2.4,4.9-4.5,7.3-6.7c0.3,0.3,0.6,0.6,0.8,0.9c-1.4,1.7-2.8,3.4-4.4,5.4
		c1.7,2.5,3.4,5,5.1,7.6C163.1,300.5,162.8,300.8,162.4,301.1"/>
	<path class="st4" d="M378.9,289.1h-6.4c-0.2,0.5-0.4,0.9-0.6,1.4c2.3,1.4,4.7,2.7,8,4.6c-0.8,1.6-1.3,4.4-2.4,4.7
		c-2.7,0.6-5.7,0-8.5-0.1l0.1-1.9c2.6,0.2,5.2,0.4,7.8,0.6c0.2-0.6,0.3-1.3,0.5-1.9c-1.1-0.7-2.2-1.4-3.4-2
		c-1.3-0.7-2.6-1.3-4.9-2.4c1-1.9,1.6-4.3,2.7-4.7c2.3-0.7,4.9-0.2,7.4-0.2C379.1,287.8,379,288.4,378.9,289.1"/>
	<path class="st4" d="M92.8,297.8c2.5,0.1,5.1,0.3,7.7,0.4c0.1-0.6,0.3-1.2,0.4-1.8c-2.7-1.6-5.5-3.2-9.8-5.8
		c2.9-1.9,4.5-3.5,6.4-3.9c1.6-0.4,3.4,0.6,5.2,1c-0.1,0.5-0.2,1-0.3,1.5h-6.7c-0.1,0.3-0.2,0.7-0.3,1c2.8,1.9,5.5,3.8,8.2,5.6
		C100.6,301.8,96.6,302.2,92.8,297.8"/>
	<path class="st4" d="M392.2,290.5c1.3,0.7,2.8,1.3,3.8,2.3c1.4,1.4,2.5,3.2,3.8,4.9c-1.9,1-3.7,2.5-5.7,2.8
		c-1.5,0.2-3.2-1.2-4.5-2.7h7.9c0.1-0.4,0.1-0.8,0.2-1.3c-2.7-1.7-5.5-3.5-8.1-5.1c2.5-5.5,5.3-6.1,10.6-2.5h-7.4
		C392.5,289.4,392.3,290,392.2,290.5"/>
	<path class="st4" d="M216.6,300.8c-1-1-2-2.1-3.1-3.2h-6.2c-0.8,0.9-1.8,2.1-2.8,3.2c-0.4-0.2-0.8-0.4-1.1-0.6
		c2-4.6,4.1-9.1,6.1-13.7c0.6-0.1,1.2-0.2,1.7-0.2c2.1,4.6,4.3,9.2,6.4,13.9C217.2,300.3,216.9,300.6,216.6,300.8"/>
	<path class="st4" d="M223,294.5c2.3-0.3,4.3-0.5,6.8-0.8c-0.2-1.8-0.4-3.2-0.6-4.8H223V294.5z M221.2,285.7
		c3.5,1.1,7.1,1.6,9.8,3.5c1,0.7-0.2,4.6-0.4,7l-1.3,0c0.8,1.3,1.5,2.7,2.3,4c-0.3,0.3-0.7,0.5-1,0.8c-1.1-1.3-2.3-2.7-3.6-4.3h-3.8
		c-0.3,1.4-0.7,2.7-1,4c-0.3,0-0.6,0-0.9,0V285.7z"/>
	<path class="st4" d="M240.2,294l4.9-8.3c0.6,0.5,1.1,1.1,1.7,1.6c-1.4,1.6-2.7,3.3-4.3,5.2c1.7,2.5,3.4,5,5.1,7.6
		c-0.3,0.3-0.6,0.6-0.9,0.9c-2-2-3.9-4.1-6.4-6.6c-1.1,2.3-2,4.4-3.5,7.7v-15.2c0.4,0,0.8,0,1.3,0c0.2,2,0.4,3.9,0.6,5.9
		C239.2,293.1,239.7,293.6,240.2,294"/>
	<path class="st4" d="M147.6,298.1c-3,3.2-6.5,3.5-9.6,0.7c-2.9-2.7-3.2-6.9-0.6-9.8c2.8-3.1,6.9-3.1,10.8,0.6
		c-4.8-0.9-9.8-2.5-10.3,4.2C137.8,297.7,140.8,299,147.6,298.1"/>
	<path class="st4" d="M253.6,292.4c2.8,0.3,4.8,0.5,6.9,0.7l0,1.2c-2.2,0.2-4.3,0.3-6.7,0.5v3.7c2.6,0.2,5.1,0.4,7.7,0.6
		c0,0.4,0,0.8,0,1.2c-3,0.1-6.1,0.3-9.6,0.5V287h9.3c0,0.4,0.1,0.8,0.1,1.3c-2.3,0.1-4.6,0.3-7.4,0.4
		C253.8,289.8,253.7,291,253.6,292.4"/>
	<path class="st4" d="M356.2,286.4c1.5,2.2,3,4.3,4.8,6.8c1.6-2.4,3-4.6,4.4-6.8l0.9,0.6c-1.8,4.5-3.6,9-5.4,13.5
		c-1.8-4.3-3.7-8.8-5.6-13.3C355.7,286.9,355.9,286.6,356.2,286.4"/>
	<path class="st4" d="M109.5,288.9c-1.4-0.3-2.7-0.5-4.1-0.8c0-0.3,0-0.6,0.1-0.9h10.8c0.1,0.3,0.1,0.5,0.2,0.8
		c-1.4,0.3-2.8,0.7-4.8,1.2v11.4c-0.5,0-1.1,0-1.6,0C109.9,296.8,109.7,293,109.5,288.9"/>
	<path class="st4" d="M269.1,289.9c-1.5-1.6-2.4-2.6-2.6-2.8h8.6c0,0.3,0,0.6,0,0.9c-1.3,0.3-2.7,0.6-4.8,1.1v11.5
		c-0.4,0-0.9,0-1.3,0V289.9z"/>
	<path class="st4" d="M352.8,300.3H345v-13.4c0.4,0,0.8-0.1,1.2-0.1v11.5c2.8,0.4,4.8,0.8,6.7,1.1
		C352.8,299.6,352.8,300,352.8,300.3"/>
	<path class="st4" d="M385.1,286.8v13.7l-1,0v-13.7C384.4,286.8,384.8,286.8,385.1,286.8"/>
	<path class="st4" d="M124.6,287.7c0.8,0,1.6,0,2.4,0"/>
	<path class="st4" d="M126,298.6"/>
	<path class="st4" d="M127.1,287.7"/>
	<path class="st4" d="M223,294.5"/>
	<path class="st4" d="M229.2,288.9"/>
	<path class="st4" d="M223,294.5"/>
</g>
</svg>
